PathFileType	4	(X/Y/Z)	Run_200 02
DataRate	CameraRate	NumFrames	NumMarkers	Units	OrigDataRate	OrigDataStartFrame	OrigNumFrames
120	120	4	41	mm	120	214	125
Frame#	Time	LASI			RASI			LPSI			RPSI			RTH1			RTH3			LTH1			LTH2			LTH3			RTB1			RTB2			RTB3			LTB1			LTB2			LTB3			RCAL			RTOE			RMT5			LCAL			LTOE			LMT5			LACR			RACR			CLAV			C7			RUA1			RUA2			RUA3			RLEL			RMEL			LUA1			LUA2			LUA3			LLEL			LMEL			RFAsuperior			RFAradius			RFAulna			LFAsuperior			LFAradius			LFAulna			
		X1	Y1	Z1	X2	Y2	Z2	X3	Y3	Z3	X4	Y4	Z4	X5	Y5	Z5	X6	Y6	Z6	X7	Y7	Z7	X8	Y8	Z8	X9	Y9	Z9	X10	Y10	Z10	X11	Y11	Z11	X12	Y12	Z12	X13	Y13	Z13	X14	Y14	Z14	X15	Y15	Z15	X16	Y16	Z16	X17	Y17	Z17	X18	Y18	Z18	X19	Y19	Z19	X20	Y20	Z20	X21	Y21	Z21	X22	Y22	Z22	X23	Y23	Z23	X24	Y24	Z24	X25	Y25	Z25	X26	Y26	Z26	X27	Y27	Z27	X28	Y28	Z28	X29	Y29	Z29	X30	Y30	Z30	X31	Y31	Z31	X32	Y32	Z32	X33	Y33	Z33	X34	Y34	Z34	X35	Y35	Z35	X36	Y36	Z36	X37	Y37	Z37	X38	Y38	Z38	X39	Y39	Z39	X40	Y40	Z40	X41	Y41	Z41	

214	2.55	888.88052	983.252024	-377.173102	885.22207	977.759531	-144.83955	728.3835340000001	1014.549623	-312.461994	718.614114	1018.251893	-214.722019	829.246056	814.927334	-89.896207	843.260007	559.520636	-158.091977	875.187315	800.3883959999999	-440.469599	968.236417	716.33994	-431.949123	936.7201659999999	592.524235	-418.00427	848.513922	331.184247	-244.720273	797.573974	284.387849	-177.949132	778.371768	228.881732	-252.07654	925.130136	395.813081	-345.452003	833.581636	382.010785	-415.511217	787.6010680000001	293.736985	-348.73912	594.209835	113.881948	-242.9066	794.418312	72.00604300000001	-286.69391	781.634695	60.001638	-191.860264	611.31387	276.898224	-330.793164	748.678904	121.621833	-347.266875	718.137078	133.039686	-432.844434	863.561028	1449.439318	-449.404854	877.942732	1433.594346	-54.572809	936.297146	1432.291793	-235.114785	813.437271	1496.379345	-263.298092	824.8664209999999	1293.755787	-11.12909	750.488522	1286.651104	-22.320548	788.369462	1213.611204	14.042805	760.400309	1148.13236	32.72316	725.091048	1131.466504	-39.745411	779.796436	1338.871389	-510.393838	704.284631	1313.013952	-504.267071	753.674167	1251.324873	-525.8929869999999	688.95271	1196.578168	-551.194532	645.201945	1206.00574	-477.5512	866.0541909999999	1082.67121	-0.409846	948.576087	1034.444539	-74.283744	923.348748	978.572859	-38.18027	779.458604	1110.31626	-514.365742	852.502191	1077.786777	-420.521203	841.816918	1028.174778	-465.23263	
215	2.558333	889.4018579999999	989.201053	-377.539995	886.7443050000001	982.070194	-145.232373	729.1558	1020.654874	-312.453228	720.385957	1023.634006	-214.719927	827.599345	818.874853	-90.95358400000001	831.958334	563.1878400000001	-159.417109	877.484876	806.89484	-440.859033	970.818976	723.697423	-431.121045	940.796274	599.502432	-416.806308	844.860089	331.054352	-244.989067	793.529602	284.752525	-178.037554	774.596182	228.55134	-250.93901	935.114452	398.060711	-344.459936	844.280338	381.830349	-414.502066	801.945597	291.343458	-347.924687	578.672319	116.809186	-241.863948	778.053134	72.664018	-286.108307	765.171154	60.157606	-191.842745	626.848672	264.626833	-331.61751	773.868118	118.35124	-347.010005	743.306693	127.958786	-433.076055	860.302533	1455.994292	-449.381871	880.788502	1440.529056	-55.395375	936.412104	1438.33649	-236.862934	813.068744	1501.708847	-262.968766	829.56975	1300.17326	-11.288475	755.053443	1292.447048	-20.654432	794.580675	1219.622274	14.117494	767.286379	1153.884576	33.019073	731.6108379999999	1136.972047	-39.216882	775.106285	1347.531765	-510.497806	699.7166099999999	1322.523312	-504.63054	748.115308	1260.30378	-526.623382	682.213384	1206.724606	-551.651242	639.1202019999999	1216.42847	-477.859243	874.233486	1092.445776	-2.454778	957.3345409999999	1048.073435	-77.99369799999999	934.290849	990.916677	-42.505386	772.582397	1120.416077	-516.019756	847.639155	1086.500266	-422.659035	835.3509780000001	1037.527504	-467.973411	
216	2.566667	890.211773	995.604527	-378.14484	888.671891	986.7610120000001	-145.701339	730.20831	1027.219885	-312.665775	722.56582	1029.394122	-214.810332	826.102847	823.181467	-92.103329	820.633907	567.655478	-160.758832	879.835789	813.453321	-441.274252	973.1359169999999	731.119982	-430.27201	944.3849740000001	606.647819	-415.543233	837.11132	332.62306	-245.224021	785.37888	286.829231	-178.02781	767.140521	229.960213	-250.046798	944.280322	401.294641	-343.733984	854.735582	381.683821	-413.451645	816.5879210000001	288.93657	-347.067699	563.7148999999999	120.797549	-240.685763	761.894005	73.16636200000001	-285.865359	748.883394	60.369761	-191.790682	643.145397	252.0638	-332.39321	799.369231	115.58652	-346.215716	769.068911	123.234516	-432.818133	857.074568	1462.882575	-449.089849	883.7261119999999	1447.734318	-56.379828	936.538893	1444.758222	-238.607958	812.704392	1507.312386	-262.752542	834.172112	1307.065099	-11.459501	759.548298	1298.911403	-18.938378	800.525615	1226.284883	14.26097	773.784757	1160.364403	33.532476	737.384682	1143.247203	-38.336835	770.544054	1356.512055	-510.269726	695.413578	1332.381533	-504.354911	742.789066	1269.692579	-527.074992	675.730217	1217.156051	-551.747739	633.61154	1226.994247	-477.574423	881.6731590000001	1102.758448	-4.433002	964.910708	1062.024667	-81.77345099999999	944.107853	1003.714964	-46.835237	765.980754	1130.605972	-517.388367	843.101905	1095.543398	-424.555363	829.406551	1047.17624	-470.464581	
217	2.575	891.278623	1002.385239	-378.904021	890.725951	991.815479	-146.2477	731.501456	1034.165978	-313.010005	724.881485	1035.522759	-214.957405	824.610225	827.811368	-93.385976	809.55155	572.869042	-161.913151	882.1841449999999	819.983709	-441.708976	975.235633	738.527957	-429.488426	947.354735	613.770191	-414.180188	820.176873	337.241639	-245.477016	768.040958	291.958134	-178.010471	750.651605	234.427122	-249.201554	952.614695	405.396417	-343.070539	864.985157	381.503471	-412.428166	831.542198	286.566861	-346.238672	549.441386	125.935852	-239.508433	746.05873	73.398567	-286.105402	732.787978	60.584412	-191.800101	660.23498	239.347363	-333.172525	825.105778	113.357341	-344.743638	795.403158	118.895209	-431.924119	854.023772	1469.906021	-448.689642	886.741126	1455.087435	-57.517652	936.689718	1451.433048	-240.344944	812.382564	1513.146914	-262.648857	838.656719	1314.317336	-11.629904	763.925265	1305.968834	-17.120972	806.140596	1233.487006	14.531663	779.876762	1167.413083	34.227533	742.413841	1150.093646	-37.126417	766.245736	1365.63253	-509.859496	691.385421	1342.43749	-503.394488	737.665676	1279.315517	-527.2872	669.538666	1227.698652	-551.5058780000001	628.594884	1237.557532	-476.727938	888.400268	1113.43877	-6.326883	971.409151	1076.112722	-85.57249899999999	952.862787	1016.768521	-51.139405	759.721524	1140.76809	-518.435341	838.6486650000001	1104.809807	-426.165605	823.896973	1056.934137	-472.572663	
